<?xml version="1.0" standalone="no"?>
<!DOCTYPE svg PUBLIC "-//W3C//DTD SVG 20010904//EN"
 "http://www.w3.org/TR/2001/REC-SVG-20010904/DTD/svg10.dtd">
<svg version="1.0" xmlns="http://www.w3.org/2000/svg"
 width="615.000000pt" height="615.000000pt" viewBox="0 0 615.000000 615.000000"
 preserveAspectRatio="xMidYMid meet">
<metadata>
Created by potrace 1.14, written by Peter Selinger 2001-2017
</metadata>
<g transform="translate(0.000000,615.000000) scale(0.100000,-0.100000)"
fill="#000000" stroke="none">
<path d="M20 3080 l0 -3070 3065 0 3065 0 0 3070 0 3070 -3065 0 -3065 0 0
-3070z m2950 2830 c0 -115 -2 -210 -4 -210 -2 0 -41 18 -87 39 -191 90 -395
127 -649 118 -170 -6 -236 -17 -376 -61 -457 -145 -853 -556 -1017 -1056 -92
-277 -121 -493 -121 -880 0 -297 10 -423 48 -604 l14 -66 -357 -2 -356 -3 357
-2 357 -3 11 -43 c30 -117 90 -275 146 -387 206 -413 498 -639 944 -732 91
-19 137 -22 347 -23 134 0 243 -3 243 -7 0 -4 7 -60 15 -125 41 -324 133 -609
267 -832 56 -94 151 -222 192 -260 l26 -24 0 -354 0 -353 -1465 0 -1465 0 0
3040 0 3040 1465 0 1465 0 0 -210z m3150 -1255 l0 -1465 -387 0 -388 0 -24 77
c-60 188 -167 358 -326 519 -264 265 -567 384 -984 384 -88 0 -198 -7 -259
-16 -274 -40 -524 -163 -729 -358 l-43 -40 0 665 0 666 147 193 147 194 -55
49 c-30 27 -96 76 -146 110 l-93 61 0 213 0 213 1570 0 1570 0 0 -1465z
m-3626 621 c115 -32 252 -110 375 -214 l54 -46 23 28 24 27 0 -662 0 -662 -48
-56 c-112 -129 -206 -272 -273 -415 l-40 -86 -548 0 -548 0 -16 83 c-31 157
-41 283 -40 542 1 485 51 819 158 1051 103 225 274 365 510 420 78 18 288 12
369 -10z m1646 -1626 c209 -47 408 -218 495 -426 l14 -34 -664 0 -664 0 20 47
c66 154 199 297 335 360 92 42 190 62 309 62 61 0 130 -4 155 -9z m-1561 -548
c-35 -100 -74 -279 -89 -407 -21 -176 -22 -179 -55 -186 -60 -13 -269 -9 -333
6 -138 33 -279 117 -369 220 -86 99 -180 286 -208 413 l-7 32 545 0 544 0 -28
-78z m2104 -9 c39 -133 58 -245 64 -390 l6 -133 -736 0 -735 0 -31 42 c-30 41
-31 46 -26 113 16 177 56 380 86 438 9 16 52 17 678 17 l668 0 26 -87z m1437
-1483 l0 -1570 -1570 0 -1570 0 0 346 0 346 65 -60 c181 -166 421 -283 700
-342 192 -41 545 -38 763 5 290 59 616 214 821 393 l45 39 -124 194 c-68 107
-125 196 -127 198 -2 3 -16 -5 -31 -17 -253 -202 -475 -296 -763 -322 -210
-19 -407 13 -579 96 -271 130 -437 346 -500 652 -20 100 -48 467 -37 496 6 15
104 16 1122 16 l1115 0 0 193 c0 332 -42 719 -96 889 -5 17 16 18 380 18 l386
0 0 -1570z"/>
</g>
</svg>
